<svg version="1.1" xmlns="http://www.w3.org/2000/svg" xmlns:xlink="http://www.w3.org/1999/xlink" width="313.81" height="226.64" viewBox="0,0,313.81,226.64"><g transform="translate(-83.10001,-66.685)"><g data-paper-data="{&quot;isPaintingLayer&quot;:true}" fill="#ffffff" fill-rule="nonzero" stroke="none" stroke-width="1" stroke-linecap="butt" stroke-linejoin="miter" stroke-miterlimit="10" stroke-dasharray="" stroke-dashoffset="0" style="mix-blend-mode: normal"><path d="M396.91001,276.205c0,9.4 -7.61,17.02 -17.01,17.02l-279.8,0.1c-9.34,0 -16.92,-7.57 -16.92,-16.91l-0.08,-192.56c0,-9.42 7.63,-17.06 17.05,-17.07l279.61,-0.1c9.42,0 17.06,7.63 17.07,17.05l0.07,192.46zM126.04001,269.375l227.95,-0.08l-73,-79.83l-40.98,36.27l-41,-36.24l-72.95,79.88zM372.67001,107.925l-73.43,65.19l73.48,79.82zM124.34001,90.955l115.67,102.56l115.59,-102.65zM180.77001,173.145l-73.48,-65.13l0.05,145.01l73.42,-79.87z"/></g></g></svg>